<mxfile host="Electron" modified="2024-06-24T06:28:57.669Z" agent="Mozilla/5.0 (Windows NT 10.0; Win64; x64) AppleWebKit/537.36 (KHTML, like Gecko) draw.io/22.1.18 Chrome/120.0.6099.199 Electron/28.1.2 Safari/537.36" etag="ZaMdV4-Lpav4d9foakd7" version="22.1.18" type="device">
  <diagram name="第 1 页" id="Bshd4ATqohoNIwSaCRnM">
    <mxGraphModel dx="988" dy="570" grid="1" gridSize="10" guides="1" tooltips="1" connect="1" arrows="1" fold="1" page="1" pageScale="1" pageWidth="827" pageHeight="1169" math="0" shadow="0">
      <root>
        <mxCell id="0" />
        <mxCell id="1" parent="0" />
        <mxCell id="GVg3pt8x-dtzWujw5xAT-1" value="" style="endArrow=classic;html=1;rounded=0;" edge="1" parent="1">
          <mxGeometry width="50" height="50" relative="1" as="geometry">
            <mxPoint x="200" y="560" as="sourcePoint" />
            <mxPoint x="720" y="560" as="targetPoint" />
          </mxGeometry>
        </mxCell>
        <mxCell id="GVg3pt8x-dtzWujw5xAT-2" value="" style="endArrow=classic;html=1;rounded=0;" edge="1" parent="1">
          <mxGeometry width="50" height="50" relative="1" as="geometry">
            <mxPoint x="240" y="600" as="sourcePoint" />
            <mxPoint x="240" y="120" as="targetPoint" />
          </mxGeometry>
        </mxCell>
        <mxCell id="GVg3pt8x-dtzWujw5xAT-3" value="投资和折旧" style="text;html=1;align=center;verticalAlign=middle;resizable=0;points=[];autosize=1;strokeColor=none;fillColor=none;" vertex="1" parent="1">
          <mxGeometry x="155" y="120" width="80" height="30" as="geometry" />
        </mxCell>
        <mxCell id="GVg3pt8x-dtzWujw5xAT-4" value="人均资本，&lt;i&gt;k&lt;/i&gt;" style="text;html=1;align=center;verticalAlign=middle;resizable=0;points=[];autosize=1;strokeColor=none;fillColor=none;" vertex="1" parent="1">
          <mxGeometry x="630" y="560" width="90" height="30" as="geometry" />
        </mxCell>
        <mxCell id="GVg3pt8x-dtzWujw5xAT-5" value="" style="endArrow=none;html=1;rounded=0;curved=1;dashed=1;dashPattern=1 1;" edge="1" parent="1">
          <mxGeometry width="50" height="50" relative="1" as="geometry">
            <mxPoint x="240" y="560" as="sourcePoint" />
            <mxPoint x="680" y="280" as="targetPoint" />
            <Array as="points">
              <mxPoint x="360" y="320" />
            </Array>
          </mxGeometry>
        </mxCell>
        <mxCell id="GVg3pt8x-dtzWujw5xAT-6" value="" style="endArrow=none;html=1;rounded=0;" edge="1" parent="1">
          <mxGeometry width="50" height="50" relative="1" as="geometry">
            <mxPoint x="240" y="560" as="sourcePoint" />
            <mxPoint x="680" y="160" as="targetPoint" />
          </mxGeometry>
        </mxCell>
        <mxCell id="GVg3pt8x-dtzWujw5xAT-7" value="" style="endArrow=none;dashed=1;html=1;rounded=0;" edge="1" parent="1">
          <mxGeometry width="50" height="50" relative="1" as="geometry">
            <mxPoint x="500" y="560" as="sourcePoint" />
            <mxPoint x="500" y="330" as="targetPoint" />
          </mxGeometry>
        </mxCell>
        <mxCell id="GVg3pt8x-dtzWujw5xAT-10" value="折旧，&lt;i style=&quot;border-color: var(--border-color);&quot;&gt;δk&lt;/i&gt;" style="text;html=1;align=center;verticalAlign=middle;resizable=0;points=[];autosize=1;strokeColor=none;fillColor=none;" vertex="1" parent="1">
          <mxGeometry x="600" y="148" width="70" height="30" as="geometry" />
        </mxCell>
        <mxCell id="GVg3pt8x-dtzWujw5xAT-11" value="投资，&lt;i style=&quot;border-color: var(--border-color);&quot;&gt;s&lt;/i&gt;&lt;sub style=&quot;border-color: var(--border-color);&quot;&gt;1&lt;/sub&gt;&lt;i style=&quot;border-color: var(--border-color);&quot;&gt;f(k)&lt;/i&gt;" style="text;html=1;align=center;verticalAlign=middle;resizable=0;points=[];autosize=1;strokeColor=none;fillColor=none;" vertex="1" parent="1">
          <mxGeometry x="600" y="290" width="90" height="30" as="geometry" />
        </mxCell>
        <mxCell id="GVg3pt8x-dtzWujw5xAT-20" value="" style="endArrow=none;html=1;rounded=0;curved=1;" edge="1" parent="1">
          <mxGeometry width="50" height="50" relative="1" as="geometry">
            <mxPoint x="240" y="560" as="sourcePoint" />
            <mxPoint x="680" y="240" as="targetPoint" />
            <Array as="points">
              <mxPoint x="320" y="280" />
            </Array>
          </mxGeometry>
        </mxCell>
        <mxCell id="GVg3pt8x-dtzWujw5xAT-21" value="" style="endArrow=none;dashed=1;html=1;rounded=0;" edge="1" parent="1">
          <mxGeometry width="50" height="50" relative="1" as="geometry">
            <mxPoint x="570" y="560" as="sourcePoint" />
            <mxPoint x="570" y="260" as="targetPoint" />
          </mxGeometry>
        </mxCell>
        <mxCell id="GVg3pt8x-dtzWujw5xAT-22" value="&lt;i&gt;k&lt;/i&gt;&lt;sub&gt;1&lt;/sub&gt;" style="text;html=1;align=center;verticalAlign=middle;resizable=0;points=[];autosize=1;strokeColor=none;fillColor=none;" vertex="1" parent="1">
          <mxGeometry x="480" y="560" width="40" height="30" as="geometry" />
        </mxCell>
        <mxCell id="GVg3pt8x-dtzWujw5xAT-23" value="&lt;i&gt;k&lt;/i&gt;&lt;sub&gt;2&lt;/sub&gt;" style="text;html=1;align=center;verticalAlign=middle;resizable=0;points=[];autosize=1;strokeColor=none;fillColor=none;" vertex="1" parent="1">
          <mxGeometry x="550" y="560" width="40" height="30" as="geometry" />
        </mxCell>
        <mxCell id="GVg3pt8x-dtzWujw5xAT-24" value="" style="endArrow=classic;html=1;rounded=0;" edge="1" parent="1">
          <mxGeometry width="50" height="50" relative="1" as="geometry">
            <mxPoint x="440" y="350" as="sourcePoint" />
            <mxPoint x="440" y="310" as="targetPoint" />
          </mxGeometry>
        </mxCell>
        <mxCell id="GVg3pt8x-dtzWujw5xAT-25" value="" style="endArrow=classic;html=1;rounded=0;" edge="1" parent="1">
          <mxGeometry width="50" height="50" relative="1" as="geometry">
            <mxPoint x="510" y="540.01" as="sourcePoint" />
            <mxPoint x="560" y="540" as="targetPoint" />
          </mxGeometry>
        </mxCell>
        <mxCell id="GVg3pt8x-dtzWujw5xAT-26" value="投资，&lt;i style=&quot;border-color: var(--border-color);&quot;&gt;s&lt;/i&gt;&lt;sub style=&quot;border-color: var(--border-color);&quot;&gt;2&lt;/sub&gt;&lt;i style=&quot;border-color: var(--border-color);&quot;&gt;f(k)&lt;/i&gt;" style="text;html=1;align=center;verticalAlign=middle;resizable=0;points=[];autosize=1;strokeColor=none;fillColor=none;" vertex="1" parent="1">
          <mxGeometry x="640" y="240" width="90" height="30" as="geometry" />
        </mxCell>
      </root>
    </mxGraphModel>
  </diagram>
</mxfile>
